<svg id="svg" version="1.1" xmlns="http://www.w3.org/2000/svg" xmlns:xlink="http://www.w3.org/1999/xlink" width="400" height="400" viewBox="0, 0, 400,400"><g id="svgg"><path id="path0" d="M130.964 101.523 C 130.964 101.709,130.508 101.861,129.949 101.861 C 129.391 101.861,128.934 102.014,128.934 102.200 C 128.934 102.386,128.699 102.538,128.411 102.538 C 127.535 102.538,125.550 104.949,125.550 106.012 C 125.550 106.253,125.245 106.669,124.873 106.937 C 124.501 107.206,124.196 107.696,124.196 108.027 C 124.196 108.358,124.044 108.629,123.858 108.629 C 123.672 108.629,123.519 108.934,123.519 109.306 C 123.519 109.679,123.367 109.983,123.181 109.983 C 122.995 109.983,122.843 110.288,122.843 110.660 C 122.843 111.032,122.690 111.337,122.504 111.337 C 122.318 111.337,122.166 111.641,122.166 112.014 C 122.166 112.386,122.014 112.690,121.827 112.690 C 121.641 112.690,121.489 112.961,121.489 113.292 C 121.489 113.624,121.184 114.114,120.812 114.382 C 120.440 114.651,120.135 115.141,120.135 115.472 C 120.135 115.803,119.983 116.074,119.797 116.074 C 119.611 116.074,119.459 116.379,119.459 116.751 C 119.459 117.124,119.306 117.428,119.120 117.428 C 118.934 117.428,118.782 117.699,118.782 118.030 C 118.782 118.361,118.477 118.852,118.105 119.120 C 117.733 119.388,117.428 119.879,117.428 120.210 C 117.428 120.541,117.276 120.812,117.090 120.812 C 116.904 120.812,116.751 121.117,116.751 121.489 C 116.751 121.861,116.599 122.166,116.413 122.166 C 116.227 122.166,116.074 122.470,116.074 122.843 C 116.074 123.215,115.922 123.519,115.736 123.519 C 115.550 123.519,115.398 123.768,115.398 124.072 C 115.398 124.376,115.119 124.871,114.777 125.172 C 113.778 126.054,113.713 127.075,114.552 128.732 L 115.325 130.259 122.045 118.222 C 125.741 111.602,129.069 105.986,129.442 105.743 C 130.006 105.375,131.472 105.436,138.240 106.110 C 149.122 107.193,147.960 107.326,149.553 104.822 L 150.898 102.707 147.700 102.610 C 145.940 102.557,144.501 102.367,144.501 102.187 C 144.501 101.999,143.009 101.861,140.968 101.861 C 138.977 101.861,137.343 101.713,137.225 101.523 C 137.110 101.337,135.654 101.184,133.990 101.184 C 132.199 101.184,130.964 101.322,130.964 101.523 M131.789 107.987 C 131.582 108.322,132.338 110.321,132.672 110.321 C 132.946 110.321,139.086 128.772,139.086 129.597 C 139.086 129.829,138.710 129.950,138.183 129.887 C 137.223 129.773,135.473 125.126,131.798 112.928 C 131.083 110.556,130.347 108.666,130.162 108.728 C 129.977 108.789,127.303 113.338,124.219 118.837 C 117.905 130.096,118.084 129.826,116.712 130.127 C 115.737 130.341,115.711 130.396,115.923 131.814 C 116.139 133.254,115.935 133.651,104.563 153.961 C 91.865 176.639,92.293 175.957,90.947 175.666 L 90.016 175.465 91.728 172.420 C 92.670 170.745,94.065 168.246,94.828 166.867 L 96.215 164.360 94.460 164.568 C 92.651 164.782,91.709 165.377,91.709 166.304 C 91.709 166.597,91.557 166.836,91.371 166.836 C 91.184 166.836,91.032 167.140,91.032 167.513 C 91.032 167.885,90.880 168.190,90.694 168.190 C 90.508 168.190,90.355 168.494,90.355 168.866 C 90.355 169.239,90.203 169.543,90.017 169.543 C 89.831 169.543,89.679 169.782,89.679 170.075 C 89.679 171.206,88.718 171.674,86.801 171.476 C 84.412 171.229,83.664 171.459,83.062 172.623 C 82.618 173.481,82.475 173.545,81.747 173.214 C 80.616 172.698,79.401 173.081,78.840 174.129 C 78.071 175.567,77.307 175.760,72.589 175.713 C 69.228 175.680,68.010 175.787,67.427 176.168 C 66.754 176.608,66.548 176.606,65.667 176.150 C 65.119 175.867,64.138 175.635,63.488 175.635 C 62.646 175.635,62.152 175.416,61.772 174.873 C 61.038 173.824,57.318 173.802,55.930 174.837 L 55.024 175.514 55.003 185.303 C 54.991 190.688,55.100 195.353,55.244 195.670 C 55.876 197.058,61.375 197.497,61.783 196.193 C 61.915 195.774,62.306 195.068,62.652 194.624 C 62.999 194.181,63.283 193.552,63.283 193.228 C 63.283 192.842,63.639 192.568,64.320 192.432 C 65.939 192.108,67.203 190.595,67.697 188.390 C 68.200 186.141,68.530 185.977,69.018 187.733 C 69.578 189.748,69.472 190.187,68.335 190.584 C 65.320 191.634,67.137 195.606,70.430 195.164 C 73.030 194.816,74.048 193.298,75.133 188.151 C 76.112 183.509,76.333 183.393,76.605 187.378 C 76.911 191.839,77.283 192.351,80.322 192.486 C 81.560 192.541,82.572 192.735,82.572 192.916 C 82.572 193.098,73.276 209.847,61.914 230.136 C 50.553 250.426,41.171 267.250,41.066 267.523 C 40.901 267.953,42.150 268.020,50.302 268.019 L 59.729 268.018 72.578 244.923 C 79.644 232.220,88.982 215.431,93.328 207.614 C 102.996 190.226,103.553 189.321,103.553 191.008 C 103.553 192.317,104.427 192.536,109.589 192.524 C 116.122 192.510,115.574 193.145,115.455 185.718 C 115.323 177.518,114.703 175.635,112.137 175.635 C 111.697 175.635,111.337 175.553,111.337 175.454 C 111.337 174.922,124.398 151.847,124.783 151.699 C 125.445 151.445,125.453 151.462,126.741 155.937 C 128.197 160.991,128.209 161.507,126.903 162.437 C 125.384 163.519,124.970 164.467,125.761 165.051 C 126.110 165.309,126.356 165.720,126.307 165.964 C 126.168 166.654,127.164 167.288,128.709 167.494 L 130.118 167.682 131.274 171.555 C 132.151 174.492,132.324 175.463,131.993 175.574 C 131.753 175.654,131.282 175.994,130.946 176.329 C 130.358 176.918,130.290 176.916,129.056 176.287 C 124.487 173.958,119.086 177.219,120.772 181.290 C 121.144 182.188,121.120 182.491,120.597 183.468 C 118.559 187.280,120.555 192.759,123.916 192.577 C 128.284 192.341,130.436 192.678,130.574 193.619 C 130.783 195.045,131.239 195.262,134.027 195.262 C 135.930 195.262,136.812 195.120,137.179 194.752 C 137.906 194.025,137.583 193.023,145.849 221.658 C 150.076 236.304,157.623 262.308,158.518 265.313 L 159.273 267.851 170.876 267.940 C 180.112 268.011,182.446 267.942,182.317 267.602 C 180.696 263.318,158.036 193.046,158.166 192.707 C 158.298 192.363,158.567 192.309,159.124 192.515 C 159.809 192.768,161.317 197.138,172.158 230.301 C 178.900 250.926,184.535 267.902,184.679 268.026 C 184.884 268.201,311.054 272.864,338.036 273.693 L 343.922 273.874 343.752 273.062 C 343.658 272.616,337.706 254.052,330.525 231.810 C 313.799 180.002,314.077 180.964,315.340 179.318 C 316.949 177.221,316.333 175.635,313.908 175.635 C 312.077 175.635,313.319 178.865,303.595 148.803 C 299.154 135.070,295.433 123.746,295.327 123.640 C 295.191 123.505,154.995 109.873,133.393 107.895 C 132.588 107.821,131.866 107.863,131.789 107.987 M234.071 111.828 C 235.053 113.888,234.646 114.039,227.962 114.080 C 222.246 114.115,222.617 114.159,254.973 117.304 C 281.047 119.838,287.834 120.403,288.041 120.060 C 288.184 119.822,288.767 118.828,289.335 117.851 L 290.369 116.074 287.844 116.074 C 286.455 116.074,285.225 115.922,285.110 115.736 C 284.992 115.546,283.365 115.398,281.387 115.398 C 279.410 115.398,277.783 115.250,277.665 115.059 C 277.550 114.873,276.032 114.721,274.281 114.721 C 272.529 114.721,271.012 114.569,270.897 114.382 C 270.781 114.196,269.264 114.044,267.513 114.044 C 265.761 114.044,264.244 113.892,264.129 113.706 C 264.011 113.515,262.383 113.367,260.406 113.367 C 258.429 113.367,256.801 113.219,256.684 113.029 C 256.568 112.842,255.051 112.690,253.299 112.690 C 251.548 112.690,250.031 112.539,249.915 112.352 C 249.798 112.162,248.170 112.014,246.193 112.014 C 244.216 112.014,242.588 111.866,242.470 111.675 C 242.355 111.488,240.838 111.337,239.086 111.337 C 237.335 111.337,235.818 111.185,235.702 110.998 C 235.587 110.812,235.048 110.660,234.503 110.660 L 233.513 110.660 234.071 111.828 M146.234 133.926 C 145.330 135.740,144.433 137.606,144.241 138.071 C 143.894 138.913,143.889 138.910,143.342 137.563 C 141.920 134.070,140.968 133.372,137.235 133.090 L 134.687 132.897 134.687 147.260 L 134.687 161.622 136.041 162.944 C 137.963 164.821,138.002 164.805,131.472 164.805 C 124.867 164.805,124.883 164.812,127.242 162.944 L 128.934 161.604 128.934 148.444 L 128.934 135.285 126.690 135.428 C 124.289 135.581,122.504 136.843,122.504 138.387 C 122.504 139.368,122.142 140.102,121.658 140.102 C 121.322 140.102,121.295 139.779,121.539 138.691 C 122.233 135.603,123.323 134.724,126.819 134.432 C 129.956 134.171,129.754 133.333,126.554 133.333 C 122.853 133.333,120.479 134.875,120.475 137.282 C 120.471 139.688,119.717 139.550,118.783 136.971 C 118.362 135.808,117.580 133.985,117.046 132.920 C 116.512 131.855,116.074 130.903,116.074 130.805 C 116.074 130.707,123.230 130.626,131.976 130.626 L 147.878 130.626 146.234 133.926 M176.742 132.910 C 175.895 134.167,174.898 135.918,174.527 136.802 C 173.724 138.716,173.559 138.761,172.845 137.264 C 171.156 133.723,169.578 133.000,163.536 132.997 L 159.391 132.995 159.391 139.086 L 159.391 145.178 160.237 145.178 L 161.083 145.178 161.083 139.811 L 161.083 134.445 163.031 134.241 C 166.091 133.922,169.496 134.532,170.875 135.648 C 172.641 137.075,172.534 137.580,170.735 136.311 C 169.214 135.238,169.008 135.190,165.456 135.080 L 161.760 134.965 161.760 140.072 L 161.760 145.178 164.129 145.178 L 166.499 145.178 168.051 143.063 C 170.232 140.091,170.220 140.074,170.220 146.165 C 170.220 152.334,170.244 152.293,168.208 149.563 L 166.703 147.547 163.047 147.547 L 159.391 147.547 159.391 154.822 L 159.391 162.098 160.237 162.098 L 161.083 162.098 161.083 155.330 L 161.083 148.562 163.939 148.562 C 165.510 148.562,166.890 148.714,167.005 148.900 C 167.138 149.115,166.219 149.239,164.487 149.239 L 161.760 149.239 161.760 155.668 L 161.760 162.098 163.728 162.098 C 168.948 162.098,171.212 161.075,173.309 157.769 L 174.749 155.499 175.151 156.871 C 175.762 158.957,176.771 160.746,178.336 162.521 L 179.753 164.129 164.956 164.129 L 150.160 164.129 152.058 162.690 L 153.956 161.252 153.966 155.415 C 153.977 148.937,154.051 149.112,151.724 150.085 C 150.340 150.663,149.915 150.715,149.915 150.305 C 149.915 149.986,152.079 148.990,153.126 148.828 C 153.497 148.770,153.854 148.437,153.922 148.087 C 154.091 147.207,151.260 147.514,149.894 148.524 C 148.518 149.541,148.415 149.423,149.299 147.850 C 150.094 146.436,151.971 145.178,153.286 145.178 C 153.954 145.178,153.976 144.989,153.976 139.436 L 153.976 133.694 152.115 132.288 C 151.091 131.516,150.254 130.825,150.254 130.755 C 150.254 130.684,156.560 130.626,164.268 130.626 L 178.282 130.626 176.742 132.910 M196.616 130.760 C 196.616 130.834,195.854 131.383,194.924 131.980 C 192.856 133.306,192.194 131.321,199.355 145.266 C 206.126 158.455,206.096 158.404,206.081 156.497 C 206.073 155.445,204.892 152.868,200.534 144.393 L 194.997 133.625 196.568 132.473 C 198.078 131.364,198.985 131.020,198.984 131.557 C 198.984 131.696,198.292 132.247,197.447 132.782 C 196.601 133.316,195.957 133.849,196.014 133.966 C 199.513 141.096,205.647 152.961,205.835 152.961 C 206.183 152.961,206.138 141.403,205.774 137.330 C 205.446 133.658,205.139 133.028,202.982 131.597 L 201.523 130.629 207.440 130.628 L 213.358 130.626 211.592 131.815 C 208.342 134.004,208.138 135.199,208.129 152.046 L 208.122 164.498 205.899 164.398 L 203.676 164.298 197.743 152.792 C 194.479 146.464,191.672 141.141,191.505 140.964 C 190.253 139.639,191.434 160.200,192.724 162.183 L 193.660 163.621 192.653 162.678 C 190.910 161.046,190.773 160.121,190.612 148.943 C 190.475 139.415,190.415 138.588,189.792 137.607 L 189.120 136.548 189.290 147.547 C 189.399 154.572,189.607 159.068,189.867 159.994 C 190.276 161.450,192.491 163.790,193.461 163.790 C 193.979 163.790,196.616 166.091,196.616 166.544 C 196.616 167.049,182.656 166.752,182.487 166.244 C 182.378 165.915,183.757 165.821,188.647 165.821 C 194.843 165.821,194.942 165.809,194.585 165.144 C 194.245 164.508,193.877 164.467,188.510 164.467 L 182.796 164.467 182.062 165.655 L 181.328 166.843 166.919 166.755 C 155.756 166.687,152.478 166.571,152.369 166.244 C 152.258 165.910,155.293 165.821,166.801 165.821 L 181.375 165.821 181.586 164.977 C 181.759 164.291,181.491 163.797,180.155 162.332 C 178.370 160.377,176.253 156.833,177.021 157.089 C 177.275 157.174,177.969 158.069,178.566 159.078 C 179.162 160.088,180.323 161.672,181.147 162.598 L 182.644 164.283 184.037 163.361 C 186.798 161.534,187.126 159.501,187.134 144.108 L 187.140 133.733 185.364 132.188 L 183.587 130.643 190.102 130.634 C 193.684 130.630,196.616 130.686,196.616 130.760 M245.008 130.773 C 245.008 130.853,244.247 132.401,243.316 134.213 C 242.386 136.024,241.624 137.709,241.624 137.958 C 241.624 138.932,241.052 138.328,240.487 136.758 C 239.459 133.898,237.885 132.995,233.928 132.995 L 231.810 132.995 231.810 147.280 L 231.810 161.565 233.235 163.016 L 234.659 164.467 228.920 164.456 L 223.181 164.445 224.967 162.849 L 226.753 161.252 226.659 148.223 L 226.565 135.195 224.365 135.291 C 221.646 135.409,220.660 136.053,219.941 138.180 C 219.286 140.122,218.951 140.501,218.951 139.301 C 218.951 136.470,220.486 135.040,224.033 134.565 C 227.912 134.046,227.791 133.149,223.848 133.196 C 219.730 133.244,217.631 134.912,217.605 138.156 C 217.593 139.661,217.149 139.231,216.206 136.798 C 215.720 135.544,214.922 133.642,214.433 132.572 L 213.545 130.626 229.277 130.626 C 237.929 130.626,245.008 130.692,245.008 130.773 M149.577 132.156 C 149.577 132.252,149.204 132.922,148.749 133.643 C 148.294 134.364,147.435 136.113,146.841 137.528 C 145.845 139.901,145.178 140.753,145.178 139.652 C 145.178 138.921,146.859 134.971,147.831 133.419 C 148.583 132.218,149.577 131.499,149.577 132.156 M178.388 134.284 C 177.670 135.343,176.677 137.009,176.183 137.986 C 175.413 139.509,174.619 140.296,174.619 139.537 C 174.619 138.639,178.989 131.921,179.405 132.179 C 179.564 132.277,179.106 133.224,178.388 134.284 M246.701 132.350 C 246.701 132.554,246.390 133.158,246.010 133.691 C 245.630 134.225,244.862 135.770,244.303 137.126 C 243.236 139.713,242.640 140.634,242.640 139.695 C 242.640 139.032,244.204 135.375,245.325 133.418 C 246.119 132.030,246.701 131.579,246.701 132.350 M214.212 132.910 C 214.212 133.050,213.641 133.469,212.943 133.841 C 210.474 135.159,210.492 135.025,210.491 151.861 L 210.491 166.836 207.634 166.836 C 203.968 166.836,203.457 166.223,207.011 166.089 L 209.645 165.990 209.814 150.870 C 209.977 136.250,210.006 135.719,210.684 134.796 C 211.590 133.562,214.215 132.159,214.212 132.910 M141.632 135.371 C 142.705 136.379,142.538 136.514,141.010 135.876 C 140.336 135.594,139.095 135.364,138.251 135.364 L 136.717 135.364 136.717 148.581 L 136.717 161.799 138.767 164.233 L 140.816 166.667 134.133 166.759 C 128.516 166.836,127.368 166.768,126.935 166.336 C 126.474 165.875,127.066 165.821,132.584 165.821 C 135.974 165.821,138.748 165.729,138.748 165.617 C 138.748 165.504,138.063 164.650,137.225 163.719 L 135.702 162.025 135.702 148.142 L 135.702 134.260 138.250 134.423 C 140.310 134.555,140.957 134.737,141.632 135.371 M238.851 135.231 C 240.007 135.989,239.631 136.087,237.748 135.521 C 236.843 135.248,235.593 135.025,234.972 135.025 L 233.841 135.025 233.841 148.330 L 233.841 161.634 235.871 164.046 C 236.988 165.373,237.902 166.543,237.902 166.647 C 237.902 166.998,224.753 166.850,224.535 166.497 C 224.398 166.277,226.449 166.159,230.437 166.159 C 233.798 166.159,236.548 166.069,236.548 165.959 C 236.548 165.850,235.787 164.906,234.856 163.861 L 233.164 161.963 233.164 148.107 L 233.164 134.251 235.606 134.478 C 236.950 134.603,238.410 134.942,238.851 135.231 M108.681 135.996 C 108.280 136.343,107.953 136.876,107.953 137.180 C 107.953 137.484,107.800 137.733,107.614 137.733 C 107.428 137.733,107.276 138.037,107.276 138.409 C 107.276 138.782,107.124 139.086,106.937 139.086 C 106.751 139.086,106.599 139.391,106.599 139.763 C 106.599 140.135,106.447 140.440,106.261 140.440 C 106.074 140.440,105.922 140.711,105.922 141.042 C 105.922 141.373,105.633 141.853,105.279 142.108 C 104.651 142.560,104.654 142.604,105.407 143.946 C 106.620 146.105,106.429 146.314,111.166 137.648 L 112.414 135.364 110.912 135.364 C 109.931 135.364,109.157 135.583,108.681 135.996 M140.697 136.255 C 141.742 136.535,150.507 162.908,149.827 163.727 C 149.495 164.128,149.560 164.316,150.173 164.724 C 151.122 165.354,153.646 172.842,153.037 173.219 C 152.827 173.348,152.520 173.824,152.352 174.276 C 152.087 174.994,151.917 174.696,151.002 171.897 C 141.412 142.566,139.425 136.451,139.425 136.263 C 139.425 135.991,139.705 135.989,140.697 136.255 M171.912 147.059 C 171.912 150.934,171.794 152.928,171.574 152.792 C 171.370 152.666,171.235 150.307,171.235 146.850 C 171.235 143.253,171.361 141.117,171.574 141.117 C 171.786 141.117,171.912 143.323,171.912 147.059 M163.146 174.150 C 163.535 174.619,163.484 174.790,162.790 175.352 C 161.691 176.242,159.560 176.100,159.560 175.137 C 159.560 173.858,162.282 173.110,163.146 174.150 M193.712 173.809 C 195.087 174.337,193.531 175.973,191.654 175.973 C 191.055 175.973,190.479 175.834,190.374 175.665 C 189.705 174.583,192.164 173.216,193.712 173.809 M227.214 174.049 C 228.366 174.892,227.745 175.816,226.098 175.709 C 224.236 175.589,224.321 176.430,226.187 176.587 C 227.552 176.702,228.075 177.373,227.417 178.165 C 227.121 178.523,227.041 180.418,227.125 185.099 L 227.242 191.540 224.958 191.540 C 222.717 191.540,221.760 190.791,223.012 190.017 C 223.516 189.705,223.459 178.586,222.951 178.078 C 222.661 177.788,222.650 177.468,222.909 176.910 C 223.105 176.488,223.436 175.719,223.644 175.202 C 224.211 173.789,226.048 173.197,227.214 174.049 M81.557 175.260 C 81.557 176.119,81.733 176.645,82.064 176.772 C 82.343 176.879,82.572 177.205,82.572 177.496 C 82.572 177.787,82.343 178.112,82.064 178.219 C 81.455 178.453,81.294 189.984,81.895 190.355 C 82.927 190.993,82.162 191.540,80.239 191.540 C 77.728 191.540,77.834 191.850,77.834 184.527 C 77.834 179.544,77.749 178.524,77.308 178.201 C 76.649 177.719,76.937 176.907,77.922 176.473 C 78.336 176.291,78.980 175.653,79.354 175.055 C 80.382 173.412,81.557 173.521,81.557 175.260 M87.581 175.888 C 87.691 177.797,87.802 177.911,88.813 177.147 C 91.631 175.015,92.724 176.921,92.724 183.969 C 92.724 187.497,92.858 189.891,93.063 190.017 C 94.186 190.711,93.369 191.540,91.560 191.540 C 89.153 191.540,89.199 191.658,89.002 184.941 C 88.860 180.128,88.750 179.188,88.325 179.188 C 87.892 179.188,87.817 180.100,87.817 185.364 L 87.817 191.540 85.533 191.540 C 83.201 191.540,82.555 191.015,83.601 189.969 C 84.009 189.561,83.862 176.371,83.432 174.856 L 83.163 173.908 85.321 174.010 L 87.479 174.112 87.581 175.888 M157.527 174.365 C 157.608 174.598,157.717 178.558,157.771 183.164 L 157.868 191.540 155.584 191.540 C 153.343 191.540,152.386 190.790,153.638 190.017 C 154.133 189.711,154.090 175.884,153.593 175.387 C 153.382 175.176,153.301 174.765,153.413 174.473 C 153.672 173.799,157.300 173.705,157.527 174.365 M188.156 175.260 C 188.156 176.119,188.332 176.645,188.663 176.772 C 188.942 176.879,189.171 177.276,189.171 177.654 C 189.171 178.040,188.948 178.342,188.663 178.342 C 187.922 178.342,187.931 189.354,188.674 190.335 C 189.473 191.392,189.285 191.540,187.132 191.540 C 184.480 191.540,184.433 191.411,184.433 184.073 C 184.433 180.478,184.307 178.342,184.095 178.342 C 183.509 178.342,183.728 176.977,184.349 176.757 C 185.244 176.439,186.169 175.555,186.494 174.704 C 187.017 173.336,188.156 173.717,188.156 175.260 M310.252 178.849 L 310.351 183.587 311.342 181.387 C 312.412 179.012,312.555 178.342,311.990 178.342 C 311.791 178.342,311.677 177.999,311.736 177.580 C 311.913 176.335,315.059 176.237,315.059 177.477 C 315.059 177.953,314.904 178.342,314.715 178.342 C 313.024 178.342,313.848 186.164,315.936 189.933 C 316.642 191.207,316.318 191.540,314.374 191.540 C 312.452 191.540,312.306 191.366,311.660 188.325 C 310.827 184.402,310.031 185.083,310.432 189.376 L 310.634 191.540 308.467 191.540 C 306.307 191.540,305.507 191.143,306.222 190.427 C 306.730 189.920,306.741 176.533,306.235 175.586 C 305.554 174.314,306.072 173.899,308.202 174.010 L 310.152 174.112 310.252 178.849 M61.325 177.037 C 61.421 177.327,61.634 177.327,62.177 177.037 C 65.440 175.290,67.219 178.297,66.940 185.088 C 66.719 190.447,64.573 193.119,62.209 190.980 C 61.621 190.447,61.591 190.479,61.591 191.637 C 61.591 192.306,61.743 192.948,61.929 193.063 C 63.053 193.758,62.179 194.247,59.814 194.247 L 57.360 194.247 57.360 185.448 L 57.360 176.650 59.278 176.650 C 60.416 176.650,61.248 176.807,61.325 177.037 M72.289 178.934 C 72.289 180.190,72.495 181.904,72.746 182.741 L 73.204 184.264 73.657 182.234 C 73.917 181.069,74.027 179.436,73.915 178.404 L 73.719 176.606 75.015 176.712 C 76.570 176.840,76.601 176.022,74.693 185.238 C 73.301 191.964,73.178 192.350,72.143 193.275 C 70.331 194.895,67.475 194.344,67.748 192.428 C 67.877 191.526,69.605 191.205,69.920 192.025 C 70.206 192.770,71.156 192.713,70.944 191.963 C 70.851 191.637,70.214 188.553,69.527 185.110 C 68.840 181.667,68.144 178.705,67.980 178.528 C 66.892 177.355,67.645 176.650,69.985 176.650 L 72.288 176.650 72.289 178.934 M101.123 177.337 C 105.049 179.731,104.267 190.131,100.057 191.521 C 96.804 192.595,94.085 189.416,94.080 184.534 C 94.073 178.400,97.359 175.042,101.123 177.337 M108.968 177.351 L 108.968 178.053 109.860 177.351 C 110.956 176.489,112.734 176.439,113.468 177.251 C 113.913 177.743,114.036 178.935,114.143 183.766 C 114.214 187.018,114.391 190.097,114.536 190.609 L 114.800 191.540 112.891 191.540 C 110.399 191.540,110.321 191.324,110.321 184.386 C 110.321 179.409,110.273 178.978,109.729 179.083 C 109.156 179.194,108.839 188.411,109.330 190.694 C 109.464 191.316,109.274 191.379,106.978 191.471 C 104.502 191.570,104.484 191.565,104.760 190.794 C 105.229 189.489,105.335 178.688,104.885 178.146 C 104.073 177.167,104.779 176.650,106.927 176.650 C 108.766 176.650,108.968 176.719,108.968 177.351 M129.197 177.773 C 130.137 178.713,131.012 190.386,130.214 191.354 C 129.724 191.948,127.534 191.721,127.024 191.023 C 126.629 190.482,126.447 190.442,125.964 190.787 C 123.091 192.838,121.051 191.324,121.051 187.140 C 121.051 184.142,121.590 183.313,124.394 182.001 C 126.680 180.932,127.550 179.037,126.023 178.451 C 125.396 178.210,124.886 178.866,124.878 179.923 C 124.870 181.116,122.587 181.733,121.796 180.756 C 119.421 177.822,126.422 175.000,129.197 177.773 M135.702 177.196 C 135.702 177.699,135.768 177.699,136.536 177.196 C 139.369 175.340,141.455 178.054,141.455 183.595 C 141.455 189.910,139.128 193.286,136.485 190.804 L 135.702 190.068 135.702 191.270 C 135.702 191.931,135.931 192.662,136.210 192.893 C 137.367 193.854,136.802 194.247,134.264 194.247 L 131.810 194.247 131.810 185.448 L 131.810 176.650 133.756 176.650 C 135.322 176.650,135.702 176.757,135.702 177.196 M146.531 177.196 C 146.531 177.699,146.598 177.699,147.365 177.196 C 150.949 174.848,153.472 180.893,151.923 188.116 C 151.330 190.881,148.813 192.558,147.547 191.032 C 147.315 190.753,146.992 190.525,146.828 190.525 C 146.328 190.525,146.499 192.445,147.039 192.893 C 148.213 193.868,147.633 194.247,144.969 194.247 C 142.437 194.247,142.397 194.233,142.675 193.486 C 143.037 192.516,143.027 178.821,142.664 177.580 L 142.391 176.650 144.461 176.650 C 146.141 176.650,146.531 176.753,146.531 177.196 M163.375 183.392 C 163.431 187.402,163.607 190.135,163.827 190.399 C 164.491 191.199,163.767 191.540,161.401 191.540 C 159.098 191.540,158.122 190.801,159.391 190.017 C 159.882 189.714,159.840 178.588,159.346 178.094 C 158.455 177.203,159.307 176.612,161.333 176.717 L 163.283 176.819 163.375 183.392 M171.548 177.691 C 173.150 179.294,172.919 181.914,171.197 181.671 C 170.502 181.573,170.374 181.345,170.283 180.034 C 170.163 178.303,169.688 177.566,169.196 178.345 C 168.847 178.896,168.739 188.783,169.072 189.651 C 169.600 191.027,170.897 189.588,170.897 187.626 C 170.897 186.973,171.072 186.802,171.743 186.802 C 173.664 186.802,172.178 191.028,170.059 191.592 C 167.136 192.371,164.962 189.224,164.995 184.264 C 165.036 177.981,168.432 174.575,171.548 177.691 M180.565 177.145 C 182.390 177.908,182.673 178.992,182.774 185.616 L 182.862 191.351 182.040 191.549 C 180.811 191.843,179.719 191.539,179.318 190.790 C 178.965 190.131,178.950 190.132,178.184 190.853 C 175.503 193.371,172.402 189.573,173.577 185.210 C 174.020 183.567,174.588 183.028,177.082 181.886 C 179.115 180.955,179.780 179.395,178.571 178.391 C 177.990 177.909,177.327 178.528,177.327 179.552 C 177.327 181.112,174.247 181.865,173.787 180.417 C 172.950 177.777,177.184 175.733,180.565 177.145 M194.170 183.240 C 194.222 186.834,194.408 189.806,194.593 189.991 C 195.618 191.015,194.956 191.540,192.640 191.540 L 190.355 191.540 190.472 185.099 C 190.556 180.418,190.477 178.523,190.180 178.165 C 189.331 177.142,190.047 176.609,192.128 176.717 L 194.078 176.819 194.170 183.240 M203.621 178.178 C 208.115 183.376,203.427 194.730,198.349 190.946 C 195.067 188.500,195.135 179.353,198.450 177.268 C 200.118 176.219,202.252 176.595,203.621 178.178 M210.491 177.315 C 210.491 177.972,210.506 177.972,211.659 177.291 C 215.019 175.309,215.833 176.769,215.968 185.025 L 216.075 191.540 214.509 191.540 C 212.266 191.540,212.212 191.391,212.107 184.916 C 212.018 179.444,211.983 179.188,211.337 179.188 C 210.562 179.188,210.081 189.235,210.820 189.974 C 211.880 191.034,211.216 191.540,208.761 191.540 L 206.354 191.540 206.646 190.271 C 207.008 188.695,206.988 178.848,206.621 177.580 L 206.351 176.650 208.421 176.650 C 210.253 176.650,210.491 176.726,210.491 177.315 M232.434 178.003 L 232.550 179.188 233.114 178.003 C 233.891 176.372,235.199 176.332,235.656 177.926 C 236.228 179.919,234.924 181.508,233.814 180.170 C 232.752 178.891,232.302 188.611,233.353 190.111 C 234.149 191.248,233.691 191.540,231.114 191.540 C 228.810 191.540,227.835 190.801,229.103 190.017 C 229.572 189.727,229.548 179.173,229.077 178.293 C 228.430 177.084,228.928 176.602,230.707 176.716 C 232.277 176.816,232.321 176.849,232.434 178.003 M244.720 177.949 L 245.685 179.029 245.690 184.354 C 245.693 187.282,245.832 189.893,245.998 190.155 C 246.560 191.043,246.011 191.540,244.468 191.540 C 243.369 191.540,242.878 191.370,242.576 190.887 C 242.174 190.243,242.157 190.243,241.252 190.887 C 238.613 192.766,236.548 191.015,236.548 186.898 C 236.548 184.090,237.114 183.313,240.186 181.902 C 241.885 181.122,241.963 181.029,241.963 179.770 C 241.963 177.682,240.853 177.466,240.418 179.470 C 240.070 181.077,237.510 181.848,236.994 180.502 C 235.790 177.364,242.281 175.219,244.720 177.949 M251.339 177.322 C 251.515 177.993,251.517 177.993,252.459 177.322 C 253.665 176.464,254.889 176.465,255.668 177.327 C 256.005 177.699,256.424 178.003,256.598 178.003 C 256.773 178.003,257.302 177.699,257.776 177.327 C 260.903 174.866,261.855 176.827,262.007 186.041 L 262.098 191.540 260.321 191.540 C 258.151 191.540,258.448 192.428,258.226 185.279 C 258.046 179.476,258.005 179.188,257.360 179.188 C 256.705 179.188,256.328 188.148,256.876 190.694 C 257.006 191.294,256.821 191.382,255.244 191.473 C 252.898 191.608,252.792 191.302,252.792 184.411 C 252.792 181.445,252.678 179.021,252.538 179.024 C 251.452 179.046,251.360 179.624,251.490 185.577 L 251.620 191.540 249.290 191.540 C 247.018 191.540,246.967 191.521,247.235 190.778 C 247.681 189.543,247.800 178.794,247.377 178.003 C 246.814 176.952,247.241 176.650,249.290 176.650 C 250.875 176.650,251.190 176.753,251.339 177.322 M270.012 177.202 C 271.155 178.003,272.065 180.261,272.074 182.318 L 272.081 184.095 269.712 184.095 L 267.343 184.095 267.343 186.734 C 267.343 189.447,267.644 190.186,268.746 190.186 C 269.531 190.186,270.389 188.910,270.389 187.742 C 270.389 186.965,270.536 186.802,271.235 186.802 C 272.585 186.802,272.422 188.761,270.941 190.331 C 267.733 193.733,263.283 190.208,263.283 184.264 C 263.283 178.799,266.889 175.015,270.012 177.202 M277.236 177.955 C 277.154 178.974,278.010 184.383,278.298 184.671 C 278.918 185.291,279.103 180.773,278.527 179.075 C 277.732 176.731,277.856 176.589,280.576 176.717 C 282.535 176.809,282.728 176.884,282.608 177.496 C 282.358 178.763,282.482 180.876,282.926 182.910 L 283.368 184.941 283.948 181.895 C 284.312 179.982,284.415 178.638,284.226 178.279 C 283.612 177.116,283.868 176.650,285.121 176.650 C 286.394 176.650,286.984 177.342,286.356 178.099 C 286.161 178.333,285.533 181.110,284.959 184.271 C 283.489 192.369,283.772 191.597,282.318 191.475 C 280.948 191.360,281.118 191.716,280.159 186.971 L 279.749 184.941 279.453 186.464 C 279.291 187.301,279.000 188.794,278.806 189.782 L 278.455 191.577 277.221 191.474 L 275.987 191.371 274.682 184.941 C 273.964 181.404,273.296 178.084,273.196 177.563 L 273.015 176.615 275.171 176.717 L 277.327 176.819 277.236 177.955 M295.303 178.099 C 299.999 183.223,295.039 194.886,289.887 190.833 C 286.699 188.326,286.971 179.346,290.298 177.208 C 291.773 176.261,293.979 176.654,295.303 178.099 M301.885 178.088 L 301.909 179.526 302.548 178.088 C 303.774 175.329,306.139 177.311,305.040 180.175 C 304.812 180.770,303.711 180.900,303.384 180.372 C 303.269 180.186,303.032 180.034,302.857 180.034 C 302.419 180.034,302.439 189.746,302.876 190.017 C 304.218 190.846,303.168 191.568,300.761 191.470 C 298.511 191.379,298.320 191.315,298.450 190.694 C 298.823 188.922,298.827 178.594,298.455 178.146 C 297.693 177.228,298.352 176.650,300.159 176.650 L 301.861 176.650 301.885 178.088 M98.308 178.741 C 97.859 180.559,98.285 190.017,98.816 190.017 C 99.491 190.017,99.587 178.317,98.913 178.092 C 98.687 178.017,98.415 178.309,98.308 178.741 M200.012 178.658 C 199.209 180.158,199.643 190.186,200.511 190.186 C 201.234 190.186,201.354 189.318,201.354 184.095 C 201.354 178.142,201.017 176.779,200.012 178.658 M267.576 178.222 C 266.939 178.859,267.334 182.741,268.036 182.741 C 268.674 182.741,268.720 182.565,268.628 180.484 C 268.536 178.414,268.171 177.628,267.576 178.222 M291.711 178.844 C 290.855 181.095,291.373 190.300,292.345 190.113 C 293.065 189.975,293.189 178.327,292.472 178.089 C 292.241 178.012,291.898 178.351,291.711 178.844 M61.816 178.906 C 61.161 179.561,61.583 189.171,62.267 189.171 C 62.912 189.171,62.944 188.945,62.944 184.461 C 62.944 179.117,62.718 178.004,61.816 178.906 M135.914 179.199 C 134.954 181.701,135.987 190.375,137.111 189.251 C 137.703 188.659,137.297 178.872,136.675 178.752 C 136.373 178.694,136.030 178.895,135.914 179.199 M146.743 179.199 C 145.783 181.701,146.816 190.375,147.940 189.251 C 148.532 188.659,148.126 178.872,147.505 178.752 C 147.202 178.694,146.860 178.895,146.743 179.199 M125.575 183.219 C 124.642 184.343,124.746 189.171,125.704 189.171 C 126.381 189.171,126.565 188.371,126.565 185.421 C 126.565 182.773,126.347 182.288,125.575 183.219 M177.853 183.493 C 177.102 184.566,177.113 188.772,177.868 189.062 C 178.728 189.391,179.008 188.528,179.013 185.533 C 179.019 182.651,178.761 182.198,177.853 183.493 M241.035 183.164 C 240.060 184.398,240.295 189.171,241.331 189.171 C 241.904 189.171,241.963 188.870,241.963 185.956 C 241.963 182.868,241.757 182.250,241.035 183.164 M330.190 219.543 L 329.995 223.181 331.890 229.175 L 333.786 235.170 335.312 235.690 C 337.191 236.330,337.056 236.342,337.056 235.533 C 337.056 235.161,336.904 234.856,336.717 234.856 C 336.531 234.856,336.379 234.247,336.379 233.503 C 336.379 232.758,336.227 232.149,336.041 232.149 C 335.854 232.149,335.702 231.692,335.702 231.134 C 335.702 230.575,335.550 230.118,335.364 230.118 C 335.178 230.118,335.025 229.662,335.025 229.103 C 335.025 228.545,334.873 228.088,334.687 228.088 C 334.501 228.088,334.349 227.631,334.349 227.073 C 334.349 226.514,334.196 226.058,334.010 226.058 C 333.824 226.058,333.672 225.601,333.672 225.042 C 333.672 224.484,333.519 224.027,333.333 224.027 C 333.147 224.027,332.995 223.570,332.995 223.012 C 332.995 222.453,332.843 221.997,332.657 221.997 C 332.470 221.997,332.318 221.540,332.318 220.981 C 332.318 220.423,332.166 219.966,331.980 219.966 C 331.794 219.966,331.641 219.357,331.641 218.613 C 331.641 217.868,331.489 217.259,331.303 217.259 C 331.117 217.259,330.964 216.954,330.964 216.582 C 330.964 214.206,330.350 216.555,330.190 219.543 M61.322 220.558 C 61.284 220.977,61.100 221.320,60.914 221.320 C 60.728 221.320,60.575 221.624,60.575 221.997 C 60.575 222.369,60.423 222.673,60.237 222.673 C 60.051 222.673,59.898 222.944,59.898 223.276 C 59.898 223.607,59.594 224.097,59.222 224.365 C 58.849 224.634,58.545 225.124,58.545 225.455 C 58.545 225.787,58.393 226.058,58.206 226.058 C 58.020 226.058,57.868 226.362,57.868 226.734 C 57.868 227.107,57.716 227.411,57.530 227.411 C 57.343 227.411,57.191 227.716,57.191 228.088 C 57.191 228.460,57.039 228.765,56.853 228.765 C 56.667 228.765,56.514 229.036,56.514 229.367 C 56.514 229.698,56.210 230.189,55.838 230.457 C 55.465 230.725,55.161 231.216,55.161 231.547 C 55.161 231.878,55.008 232.149,54.822 232.149 C 54.636 232.149,54.484 232.453,54.484 232.826 C 54.484 233.198,54.332 233.503,54.146 233.503 C 53.959 233.503,53.807 233.773,53.807 234.105 C 53.807 234.436,53.503 234.926,53.130 235.195 C 52.758 235.463,52.453 235.953,52.453 236.285 C 52.453 236.616,52.301 236.887,52.115 236.887 C 51.929 236.887,51.777 237.181,51.777 237.541 C 51.777 238.188,51.801 238.188,53.732 237.536 L 55.687 236.875 58.652 231.508 L 61.617 226.141 61.505 222.969 C 61.443 221.224,61.361 220.140,61.322 220.558 " stroke="none" fill="#9cab7b" fill-rule="evenodd"></path><path id="path1" d="M71.098 28.283 C 70.148 29.081,62.845 36.825,55.330 45.000 C 53.655 46.823,50.315 50.425,47.907 53.006 C 28.782 73.512,29.711 72.362,31.663 73.105 C 32.141 73.286,36.034 73.435,40.316 73.435 L 48.100 73.435 47.335 74.535 C 46.915 75.140,43.751 79.442,40.304 84.095 C 31.140 96.468,26.734 102.569,26.734 102.886 C 26.734 104.122,27.597 104.230,37.418 104.230 C 42.710 104.230,47.039 104.317,47.039 104.423 C 47.039 104.597,44.764 107.912,33.352 124.365 C 31.287 127.343,28.953 130.780,28.166 132.003 C 25.750 135.756,25.630 135.702,36.403 135.702 C 41.136 135.702,45.008 135.789,45.008 135.895 C 45.008 136.002,44.346 137.030,43.537 138.180 C 41.647 140.865,29.258 159.346,27.799 161.655 C 25.691 164.992,24.710 164.805,44.344 164.805 L 61.252 164.805 61.252 169.468 C 61.252 174.886,61.523 175.635,63.488 175.635 C 64.138 175.635,65.119 175.867,65.667 176.150 C 66.548 176.606,66.754 176.608,67.427 176.168 C 68.010 175.787,69.228 175.680,72.589 175.713 C 77.307 175.760,78.071 175.567,78.840 174.129 C 79.398 173.087,80.614 172.698,81.728 173.205 C 83.117 173.838,83.926 171.939,83.926 168.044 L 83.926 164.891 89.932 164.730 C 93.236 164.642,95.968 164.589,96.004 164.612 C 96.040 164.635,94.708 167.087,93.045 170.060 L 90.019 175.465 90.949 175.666 C 92.293 175.957,91.867 176.635,104.563 153.961 C 115.935 133.651,116.139 133.254,115.923 131.814 C 115.711 130.396,115.737 130.341,116.712 130.127 C 118.084 129.826,117.905 130.096,124.219 118.837 C 127.303 113.338,129.977 108.789,130.162 108.728 C 130.347 108.666,131.083 110.556,131.798 112.928 C 135.473 125.126,137.223 129.773,138.183 129.887 C 138.710 129.950,139.086 129.829,139.086 129.597 C 139.086 128.772,132.946 110.321,132.672 110.321 C 132.269 110.321,131.576 108.213,131.891 107.944 C 132.180 107.696,295.022 123.335,295.326 123.639 C 295.432 123.746,299.154 135.070,303.595 148.803 C 313.319 178.865,312.077 175.635,313.908 175.635 C 316.333 175.635,316.949 177.221,315.340 179.318 C 314.077 180.964,313.799 180.002,330.525 231.810 C 337.706 254.052,343.658 272.616,343.752 273.062 L 343.922 273.874 338.036 273.693 C 311.054 272.864,184.884 268.201,184.679 268.026 C 184.535 267.902,178.900 250.926,172.158 230.301 C 161.317 197.138,159.809 192.768,159.124 192.515 C 158.567 192.309,158.298 192.363,158.166 192.707 C 158.036 193.046,180.696 263.318,182.317 267.602 C 182.446 267.942,180.112 268.011,170.876 267.940 L 159.273 267.851 158.518 265.313 C 157.623 262.308,150.076 236.304,145.849 221.658 C 137.583 193.023,137.906 194.025,137.179 194.752 C 136.812 195.120,135.930 195.262,134.027 195.262 C 131.239 195.262,130.783 195.045,130.574 193.619 C 130.436 192.678,128.284 192.341,123.916 192.577 C 120.555 192.759,118.559 187.280,120.597 183.468 C 121.120 182.491,121.144 182.188,120.772 181.290 C 119.086 177.219,124.487 173.958,129.056 176.287 C 130.290 176.916,130.358 176.918,130.946 176.329 C 131.282 175.994,131.753 175.654,131.993 175.574 C 132.324 175.463,132.151 174.492,131.274 171.555 L 130.118 167.682 128.709 167.494 C 127.164 167.288,126.168 166.654,126.307 165.964 C 126.356 165.720,126.110 165.309,125.761 165.051 C 124.970 164.467,125.384 163.519,126.903 162.437 C 128.209 161.507,128.197 160.991,126.741 155.937 C 125.453 151.462,125.445 151.445,124.783 151.699 C 124.398 151.847,111.337 174.922,111.337 175.454 C 111.337 175.553,111.697 175.635,112.137 175.635 C 114.703 175.635,115.323 177.518,115.455 185.718 C 115.574 193.145,116.122 192.510,109.589 192.524 C 104.427 192.536,103.553 192.317,103.553 191.008 C 103.553 189.321,102.996 190.226,93.328 207.614 C 88.982 215.431,79.644 232.220,72.578 244.923 L 59.729 268.018 50.302 268.019 C 42.150 268.020,40.901 267.953,41.066 267.523 C 41.171 267.250,50.553 250.426,61.914 230.136 C 73.276 209.847,82.572 193.098,82.572 192.916 C 82.572 192.735,81.560 192.541,80.322 192.486 C 77.283 192.351,76.911 191.839,76.605 187.378 C 76.333 183.393,76.112 183.509,75.133 188.151 C 74.048 193.298,73.030 194.816,70.430 195.164 C 67.137 195.606,65.320 191.634,68.335 190.584 C 69.472 190.187,69.578 189.748,69.018 187.733 C 68.530 185.977,68.200 186.141,67.697 188.390 C 67.203 190.595,65.939 192.108,64.320 192.432 C 63.639 192.568,63.283 192.842,63.283 193.228 C 63.283 193.552,63.006 194.181,62.668 194.624 C 61.170 196.590,61.145 196.908,61.342 211.947 L 61.529 226.227 58.605 231.556 C 55.945 236.406,55.574 236.920,54.490 237.266 C 39.306 242.114,25.181 251.520,21.288 259.376 C 1.255 299.806,159.606 328.645,287.817 307.916 C 378.796 293.207,402.795 259.713,338.713 236.884 L 333.771 235.124 331.942 229.153 L 330.112 223.181 330.212 197.211 L 330.312 171.241 347.437 171.154 C 367.110 171.053,366.001 171.252,364.171 168.153 C 363.578 167.149,359.451 160.922,354.999 154.315 L 346.905 142.301 355.601 142.132 C 366.829 141.914,366.486 142.222,362.252 136.148 C 360.849 134.135,357.876 129.822,355.645 126.565 C 353.415 123.308,350.068 118.435,348.207 115.736 L 344.824 110.829 354.608 110.739 C 367.750 110.619,367.422 111.918,357.642 98.731 C 353.879 93.659,349.239 87.339,347.329 84.687 L 343.858 79.865 351.560 79.865 C 359.756 79.865,360.591 79.713,360.354 78.271 C 360.246 77.615,356.084 73.025,337.733 53.320 C 317.685 31.795,319.542 33.661,318.509 33.989 C 318.180 34.094,314.481 37.872,310.290 42.386 C 306.098 46.899,298.490 55.076,293.382 60.556 C 273.460 81.930,274.165 79.865,286.784 79.865 L 294.764 79.865 291.437 84.349 C 287.932 89.072,281.736 97.483,276.541 104.569 C 271.847 110.971,271.466 110.660,284.004 110.660 L 293.760 110.660 291.980 113.283 C 291.001 114.725,290.197 116.003,290.193 116.121 C 290.189 116.240,289.659 117.274,289.015 118.419 L 287.844 120.501 285.631 120.285 C 284.414 120.167,269.636 118.730,252.792 117.092 C 222.443 114.142,222.218 114.115,227.962 114.080 C 236.331 114.028,236.322 114.207,228.468 103.589 C 225.907 100.126,221.562 94.247,218.813 90.525 L 213.814 83.756 221.713 83.587 C 232.776 83.350,232.660 83.868,223.773 74.387 C 220.097 70.466,215.948 65.999,214.552 64.462 C 201.627 50.229,189.519 37.563,188.838 37.563 C 188.317 37.563,185.955 39.927,179.350 47.056 C 172.928 53.988,163.493 64.121,154.715 73.516 C 144.821 84.104,144.716 83.380,156.163 83.519 C 160.730 83.575,164.467 83.688,164.467 83.769 C 164.467 83.851,162.462 86.623,160.012 89.928 C 151.737 101.093,151.059 102.029,150.858 102.565 C 150.748 102.859,150.105 103.963,149.430 105.018 C 147.974 107.295,149.067 107.188,138.240 106.110 C 131.472 105.436,130.006 105.375,129.442 105.743 C 129.069 105.986,125.738 111.606,122.039 118.232 L 115.314 130.280 114.256 128.144 C 113.306 126.226,111.516 123.555,101.174 108.629 L 98.244 104.399 107.892 104.309 C 120.039 104.196,119.903 104.275,116.328 99.405 C 115.165 97.820,112.164 93.726,109.660 90.309 C 107.155 86.891,103.386 81.769,101.284 78.927 C 99.182 76.084,97.462 73.686,97.462 73.597 C 97.462 73.508,100.854 73.435,105.001 73.435 C 111.276 73.435,112.666 73.347,113.292 72.908 C 114.654 71.954,115.312 72.787,101.378 57.847 C 97.483 53.671,89.603 45.207,83.868 39.039 C 72.117 26.402,72.724 26.914,71.098 28.283 M116.074 130.805 C 116.074 130.903,116.512 131.855,117.046 132.920 C 117.580 133.985,118.362 135.808,118.783 136.971 C 119.717 139.550,120.471 139.688,120.475 137.282 C 120.479 134.875,122.853 133.333,126.554 133.333 C 129.754 133.333,129.956 134.171,126.819 134.432 C 123.323 134.724,122.233 135.603,121.539 138.691 C 121.295 139.779,121.322 140.102,121.658 140.102 C 122.142 140.102,122.504 139.368,122.504 138.387 C 122.504 136.843,124.289 135.581,126.690 135.428 L 128.934 135.285 128.934 148.444 L 128.934 161.604 127.242 162.944 C 124.883 164.812,124.867 164.805,131.472 164.805 C 138.002 164.805,137.963 164.821,136.041 162.944 L 134.687 161.622 134.687 147.260 L 134.687 132.897 137.235 133.090 C 140.968 133.372,141.920 134.070,143.342 137.563 C 143.889 138.910,143.894 138.913,144.241 138.071 C 144.433 137.606,145.330 135.740,146.234 133.926 L 147.878 130.626 131.976 130.626 C 123.230 130.626,116.074 130.707,116.074 130.805 M150.254 130.755 C 150.254 130.825,151.091 131.516,152.115 132.288 L 153.976 133.694 153.976 139.436 C 153.976 144.989,153.954 145.178,153.286 145.178 C 151.971 145.178,150.094 146.436,149.299 147.850 C 148.415 149.423,148.518 149.541,149.894 148.524 C 151.260 147.514,154.091 147.207,153.922 148.087 C 153.854 148.437,153.497 148.770,153.126 148.828 C 152.079 148.990,149.915 149.986,149.915 150.305 C 149.915 150.715,150.340 150.663,151.724 150.085 C 154.051 149.112,153.977 148.937,153.966 155.415 L 153.956 161.252 152.058 162.690 L 150.160 164.129 164.956 164.129 L 179.753 164.129 178.336 162.521 C 176.771 160.746,175.762 158.957,175.151 156.871 L 174.749 155.499 173.309 157.769 C 171.212 161.075,168.948 162.098,163.728 162.098 L 161.760 162.098 161.760 155.668 L 161.760 149.239 164.487 149.239 C 166.219 149.239,167.138 149.115,167.005 148.900 C 166.890 148.714,165.510 148.562,163.939 148.562 L 161.083 148.562 161.083 155.330 L 161.083 162.098 160.237 162.098 L 159.391 162.098 159.391 154.822 L 159.391 147.547 163.047 147.547 L 166.703 147.547 168.208 149.563 C 170.244 152.293,170.220 152.334,170.220 146.165 C 170.220 140.074,170.232 140.091,168.051 143.063 L 166.499 145.178 164.129 145.178 L 161.760 145.178 161.760 140.072 L 161.760 134.965 165.456 135.080 C 169.008 135.190,169.214 135.238,170.735 136.311 C 172.534 137.580,172.641 137.075,170.875 135.648 C 169.496 134.532,166.091 133.922,163.031 134.241 L 161.083 134.445 161.083 139.811 L 161.083 145.178 160.237 145.178 L 159.391 145.178 159.391 139.086 L 159.391 132.995 163.536 132.997 C 169.578 133.000,171.156 133.723,172.845 137.264 C 173.559 138.761,173.724 138.716,174.527 136.802 C 174.898 135.918,175.895 134.167,176.742 132.910 L 178.282 130.626 164.268 130.626 C 156.560 130.626,150.254 130.684,150.254 130.755 M185.364 132.188 L 187.140 133.733 187.134 144.108 C 187.126 159.501,186.798 161.534,184.037 163.361 L 182.644 164.283 181.147 162.598 C 180.323 161.672,179.162 160.088,178.566 159.078 C 177.969 158.069,177.275 157.174,177.021 157.089 C 176.253 156.833,178.370 160.377,180.155 162.332 C 181.491 163.797,181.759 164.291,181.586 164.977 L 181.375 165.821 166.801 165.821 C 155.293 165.821,152.258 165.910,152.369 166.244 C 152.478 166.571,155.756 166.687,166.919 166.755 L 181.328 166.843 182.062 165.655 L 182.796 164.467 188.510 164.467 C 193.877 164.467,194.245 164.508,194.585 165.144 C 194.942 165.809,194.843 165.821,188.647 165.821 C 183.757 165.821,182.378 165.915,182.487 166.244 C 182.656 166.752,196.616 167.049,196.616 166.544 C 196.616 166.091,193.979 163.790,193.461 163.790 C 192.491 163.790,190.276 161.450,189.867 159.994 C 189.607 159.068,189.399 154.572,189.290 147.547 L 189.120 136.548 189.792 137.607 C 190.415 138.588,190.475 139.415,190.612 148.943 C 190.773 160.121,190.910 161.046,192.653 162.678 L 193.660 163.621 192.724 162.183 C 191.434 160.200,190.253 139.639,191.505 140.964 C 191.672 141.141,194.479 146.464,197.743 152.792 L 203.676 164.298 205.899 164.398 L 208.122 164.498 208.129 152.046 C 208.138 135.199,208.342 134.004,211.592 131.815 L 213.358 130.626 207.440 130.628 L 201.523 130.629 202.982 131.597 C 205.139 133.028,205.446 133.658,205.774 137.330 C 206.138 141.403,206.183 152.961,205.835 152.961 C 205.647 152.961,199.513 141.096,196.014 133.966 C 195.957 133.849,196.601 133.316,197.447 132.782 C 198.292 132.247,198.984 131.696,198.984 131.557 C 198.985 131.020,198.078 131.364,196.568 132.473 L 194.997 133.625 200.534 144.393 C 204.892 152.868,206.073 155.445,206.081 156.497 C 206.096 158.404,206.126 158.455,199.355 145.266 C 192.194 131.321,192.856 133.306,194.924 131.980 C 195.854 131.383,196.616 130.834,196.616 130.760 C 196.616 130.686,193.684 130.630,190.102 130.634 L 183.587 130.643 185.364 132.188 M214.433 132.572 C 214.922 133.642,215.720 135.544,216.206 136.798 C 217.149 139.231,217.593 139.661,217.605 138.156 C 217.631 134.912,219.730 133.244,223.848 133.196 C 227.791 133.149,227.912 134.046,224.033 134.565 C 220.486 135.040,218.951 136.470,218.951 139.301 C 218.951 140.501,219.286 140.122,219.941 138.180 C 220.660 136.053,221.646 135.409,224.365 135.291 L 226.565 135.195 226.659 148.223 L 226.753 161.252 224.967 162.849 L 223.181 164.445 228.920 164.456 L 234.659 164.467 233.235 163.016 L 231.810 161.565 231.810 147.280 L 231.810 132.995 233.928 132.995 C 237.885 132.995,239.459 133.898,240.487 136.758 C 241.052 138.328,241.624 138.932,241.624 137.958 C 241.624 137.709,242.386 136.024,243.316 134.213 C 244.247 132.401,245.008 130.853,245.008 130.773 C 245.008 130.692,237.929 130.626,229.277 130.626 L 213.545 130.626 214.433 132.572 M147.831 133.419 C 146.859 134.971,145.178 138.921,145.178 139.652 C 145.178 140.753,145.845 139.901,146.841 137.528 C 147.435 136.113,148.294 134.364,148.749 133.643 C 149.697 132.141,149.736 131.979,149.154 131.980 C 148.921 131.981,148.326 132.628,147.831 133.419 M177.918 133.767 C 176.609 135.696,174.619 139.176,174.619 139.537 C 174.619 140.296,175.413 139.509,176.183 137.986 C 176.677 137.009,177.670 135.343,178.388 134.284 C 179.106 133.224,179.564 132.277,179.405 132.179 C 179.247 132.081,178.577 132.795,177.918 133.767 M245.325 133.418 C 244.204 135.375,242.640 139.032,242.640 139.695 C 242.640 140.634,243.236 139.713,244.303 137.126 C 244.862 135.770,245.630 134.225,246.010 133.691 C 246.390 133.158,246.701 132.554,246.701 132.350 C 246.701 131.579,246.119 132.030,245.325 133.418 M212.545 133.249 C 209.900 134.598,210.003 133.929,209.814 150.870 L 209.645 165.990 207.011 166.089 C 203.457 166.223,203.968 166.836,207.634 166.836 L 210.491 166.836 210.491 151.861 C 210.492 135.025,210.474 135.159,212.943 133.841 C 214.978 132.755,214.605 132.199,212.545 133.249 M135.702 148.142 L 135.702 162.025 137.225 163.719 C 138.063 164.650,138.748 165.504,138.748 165.617 C 138.748 165.729,135.974 165.821,132.584 165.821 C 127.066 165.821,126.474 165.875,126.935 166.336 C 127.368 166.768,128.516 166.836,134.133 166.759 L 140.816 166.667 138.767 164.233 L 136.717 161.799 136.717 148.581 L 136.717 135.364 138.251 135.364 C 139.095 135.364,140.336 135.594,141.010 135.876 C 142.538 136.514,142.705 136.379,141.632 135.371 C 140.957 134.737,140.310 134.555,138.250 134.423 L 135.702 134.260 135.702 148.142 M233.164 148.107 L 233.164 161.963 234.856 163.861 C 235.787 164.906,236.548 165.850,236.548 165.959 C 236.548 166.069,233.798 166.159,230.437 166.159 C 226.449 166.159,224.398 166.277,224.535 166.497 C 224.753 166.850,237.902 166.998,237.902 166.647 C 237.902 166.543,236.988 165.373,235.871 164.046 L 233.841 161.634 233.841 148.330 L 233.841 135.025 234.972 135.025 C 235.593 135.025,236.843 135.248,237.748 135.521 C 239.631 136.087,240.007 135.989,238.851 135.231 C 238.410 134.942,236.950 134.603,235.606 134.478 L 233.164 134.251 233.164 148.107 M111.166 137.648 C 106.297 146.556,106.639 146.242,105.051 143.246 C 104.450 142.112,103.181 140.034,102.233 138.628 C 101.284 137.222,100.508 135.993,100.508 135.897 C 100.508 135.800,102.525 135.675,104.992 135.617 C 107.458 135.559,110.137 135.478,110.945 135.438 L 112.414 135.364 111.166 137.648 M139.425 136.263 C 139.425 136.451,141.412 142.566,151.002 171.897 C 151.917 174.696,152.087 174.994,152.352 174.276 C 152.520 173.824,152.827 173.348,153.037 173.219 C 153.646 172.842,151.122 165.354,150.173 164.724 C 149.560 164.316,149.495 164.128,149.827 163.727 C 150.507 162.908,141.742 136.535,140.697 136.255 C 139.705 135.989,139.425 135.991,139.425 136.263 M171.235 146.850 C 171.235 150.307,171.370 152.666,171.574 152.792 C 171.794 152.928,171.912 150.934,171.912 147.059 C 171.912 143.323,171.786 141.117,171.574 141.117 C 171.361 141.117,171.235 143.253,171.235 146.850 M160.406 174.042 C 159.081 174.712,159.290 175.781,160.771 175.905 C 162.384 176.041,163.829 174.973,163.146 174.150 C 162.604 173.497,161.564 173.456,160.406 174.042 M191.484 173.988 C 190.560 174.326,190.036 175.118,190.374 175.665 C 190.680 176.160,192.676 176.020,193.495 175.446 C 195.251 174.216,193.777 173.148,191.484 173.988 M224.786 173.954 C 224.365 174.123,223.852 174.684,223.644 175.202 C 223.436 175.719,223.105 176.488,222.909 176.910 C 222.650 177.468,222.661 177.788,222.951 178.078 C 223.459 178.586,223.516 189.705,223.012 190.017 C 221.760 190.791,222.717 191.540,224.958 191.540 L 227.242 191.540 227.125 185.099 C 227.041 180.418,227.121 178.523,227.417 178.165 C 228.075 177.373,227.552 176.702,226.187 176.587 C 224.321 176.430,224.236 175.589,226.098 175.709 C 227.309 175.788,227.578 175.693,227.689 175.149 C 227.937 173.939,226.399 173.306,224.786 173.954 M79.354 175.055 C 78.980 175.653,78.336 176.291,77.922 176.473 C 76.937 176.907,76.649 177.719,77.308 178.201 C 77.749 178.524,77.834 179.544,77.834 184.527 C 77.834 191.850,77.728 191.540,80.239 191.540 C 82.162 191.540,82.927 190.993,81.895 190.355 C 81.294 189.984,81.455 178.453,82.064 178.219 C 82.343 178.112,82.572 177.787,82.572 177.496 C 82.572 177.205,82.343 176.879,82.064 176.772 C 81.733 176.645,81.557 176.119,81.557 175.260 C 81.557 173.521,80.382 173.412,79.354 175.055 M83.432 174.856 C 83.862 176.371,84.009 189.561,83.601 189.969 C 82.555 191.015,83.201 191.540,85.533 191.540 L 87.817 191.540 87.817 185.364 C 87.817 180.100,87.892 179.188,88.325 179.188 C 88.750 179.188,88.860 180.128,89.002 184.941 C 89.199 191.658,89.153 191.540,91.560 191.540 C 93.369 191.540,94.186 190.711,93.063 190.017 C 92.858 189.891,92.724 187.497,92.724 183.969 C 92.724 176.921,91.631 175.015,88.813 177.147 C 87.802 177.911,87.691 177.797,87.581 175.888 L 87.479 174.112 85.321 174.010 L 83.163 173.908 83.432 174.856 M153.413 174.473 C 153.301 174.765,153.382 175.176,153.593 175.387 C 154.090 175.884,154.133 189.711,153.638 190.017 C 152.386 190.790,153.343 191.540,155.584 191.540 L 157.868 191.540 157.771 183.164 C 157.717 178.558,157.608 174.598,157.527 174.365 C 157.300 173.705,153.672 173.799,153.413 174.473 M186.494 174.704 C 186.169 175.555,185.244 176.439,184.349 176.757 C 183.728 176.977,183.509 178.342,184.095 178.342 C 184.307 178.342,184.433 180.478,184.433 184.073 C 184.433 191.411,184.480 191.540,187.132 191.540 C 189.285 191.540,189.473 191.392,188.674 190.335 C 187.931 189.354,187.922 178.342,188.663 178.342 C 188.948 178.342,189.171 178.040,189.171 177.654 C 189.171 177.276,188.942 176.879,188.663 176.772 C 188.332 176.645,188.156 176.119,188.156 175.260 C 188.156 173.717,187.017 173.336,186.494 174.704 M306.061 174.407 C 305.956 174.681,306.034 175.211,306.235 175.586 C 306.741 176.533,306.730 189.920,306.222 190.427 C 305.507 191.143,306.307 191.540,308.467 191.540 L 310.634 191.540 310.432 189.376 C 310.031 185.083,310.827 184.402,311.660 188.325 C 312.306 191.366,312.452 191.540,314.374 191.540 C 316.318 191.540,316.642 191.207,315.936 189.933 C 313.848 186.164,313.024 178.342,314.715 178.342 C 314.904 178.342,315.059 177.953,315.059 177.477 C 315.059 176.237,311.913 176.335,311.736 177.580 C 311.677 177.999,311.791 178.342,311.990 178.342 C 312.555 178.342,312.412 179.012,311.342 181.387 L 310.351 183.587 310.252 178.849 L 310.152 174.112 308.202 174.010 C 306.729 173.933,306.206 174.030,306.061 174.407 M57.360 185.448 L 57.360 194.247 59.814 194.247 C 62.179 194.247,63.053 193.758,61.929 193.063 C 61.743 192.948,61.591 192.306,61.591 191.637 C 61.591 190.479,61.621 190.447,62.209 190.980 C 64.573 193.119,66.719 190.447,66.940 185.088 C 67.219 178.297,65.440 175.290,62.177 177.037 C 61.634 177.327,61.421 177.327,61.325 177.037 C 61.248 176.807,60.416 176.650,59.278 176.650 L 57.360 176.650 57.360 185.448 M67.682 177.428 C 67.682 177.856,67.816 178.351,67.980 178.528 C 68.144 178.705,68.840 181.667,69.527 185.110 C 70.214 188.553,70.851 191.637,70.944 191.963 C 71.156 192.713,70.206 192.770,69.920 192.025 C 69.605 191.205,67.877 191.526,67.748 192.428 C 67.475 194.344,70.331 194.895,72.143 193.275 C 73.178 192.350,73.301 191.964,74.693 185.238 C 76.601 176.022,76.570 176.840,75.015 176.712 L 73.719 176.606 73.915 178.404 C 74.027 179.436,73.917 181.069,73.657 182.234 L 73.204 184.264 72.746 182.741 C 72.495 181.904,72.289 180.190,72.289 178.934 L 72.288 176.650 69.985 176.650 C 67.807 176.650,67.682 176.692,67.682 177.428 M96.114 177.919 C 92.679 181.357,93.652 190.159,97.612 191.464 C 101.165 192.635,103.602 189.499,103.589 183.771 C 103.575 177.654,99.538 174.493,96.114 177.919 M104.689 177.162 C 104.581 177.443,104.669 177.886,104.885 178.146 C 105.335 178.688,105.229 189.489,104.760 190.794 C 104.484 191.565,104.502 191.570,106.978 191.471 C 109.274 191.379,109.464 191.316,109.330 190.694 C 108.839 188.411,109.156 179.194,109.729 179.083 C 110.273 178.978,110.321 179.409,110.321 184.386 C 110.321 191.324,110.399 191.540,112.891 191.540 L 114.800 191.540 114.536 190.609 C 114.391 190.097,114.214 187.018,114.143 183.766 C 114.036 178.935,113.913 177.743,113.468 177.251 C 112.734 176.439,110.956 176.489,109.860 177.351 L 108.968 178.053 108.968 177.351 C 108.968 176.443,105.032 176.269,104.689 177.162 M122.866 177.382 C 120.480 179.007,121.079 181.910,123.628 181.069 C 124.551 180.764,124.874 180.468,124.878 179.923 C 124.886 178.866,125.396 178.210,126.023 178.451 C 127.550 179.037,126.680 180.932,124.394 182.001 C 121.590 183.313,121.051 184.142,121.051 187.140 C 121.051 191.324,123.091 192.838,125.964 190.787 C 126.447 190.442,126.629 190.482,127.024 191.023 C 127.534 191.721,129.724 191.948,130.214 191.354 C 131.012 190.386,130.137 178.713,129.197 177.773 C 127.860 176.437,124.552 176.233,122.866 177.382 M131.810 185.448 L 131.810 194.247 134.264 194.247 C 136.802 194.247,137.367 193.854,136.210 192.893 C 135.931 192.662,135.702 191.931,135.702 191.270 L 135.702 190.068 136.485 190.804 C 139.128 193.286,141.455 189.910,141.455 183.595 C 141.455 178.054,139.369 175.340,136.536 177.196 C 135.768 177.699,135.702 177.699,135.702 177.196 C 135.702 176.757,135.322 176.650,133.756 176.650 L 131.810 176.650 131.810 185.448 M142.664 177.580 C 143.027 178.821,143.037 192.516,142.675 193.486 C 142.397 194.233,142.437 194.247,144.969 194.247 C 147.633 194.247,148.213 193.868,147.039 192.893 C 146.499 192.445,146.328 190.525,146.828 190.525 C 146.992 190.525,147.315 190.753,147.547 191.032 C 148.813 192.558,151.330 190.881,151.923 188.116 C 153.472 180.893,150.949 174.848,147.365 177.196 C 146.598 177.699,146.531 177.699,146.531 177.196 C 146.531 176.753,146.141 176.650,144.461 176.650 L 142.391 176.650 142.664 177.580 M159.173 177.163 C 159.057 177.464,159.135 177.883,159.346 178.094 C 159.840 178.588,159.882 189.714,159.391 190.017 C 158.122 190.801,159.098 191.540,161.401 191.540 C 163.767 191.540,164.491 191.199,163.827 190.399 C 163.607 190.135,163.431 187.402,163.375 183.392 L 163.283 176.819 161.333 176.717 C 159.786 176.637,159.339 176.729,159.173 177.163 M167.196 177.379 C 162.827 181.450,165.134 192.904,170.059 191.592 C 172.178 191.028,173.664 186.802,171.743 186.802 C 171.072 186.802,170.897 186.973,170.897 187.626 C 170.897 189.588,169.600 191.027,169.072 189.651 C 168.739 188.783,168.847 178.896,169.196 178.345 C 169.688 177.566,170.163 178.303,170.283 180.034 C 170.460 182.581,172.571 182.372,172.584 179.806 C 172.596 177.268,169.036 175.665,167.196 177.379 M175.372 177.328 C 173.633 178.388,173.070 180.986,174.557 181.088 C 176.392 181.214,177.327 180.696,177.327 179.552 C 177.327 178.528,177.990 177.909,178.571 178.391 C 179.780 179.395,179.115 180.955,177.082 181.886 C 174.588 183.028,174.020 183.567,173.577 185.210 C 172.402 189.573,175.503 193.371,178.184 190.853 C 178.950 190.132,178.965 190.131,179.318 190.790 C 179.719 191.539,180.811 191.843,182.040 191.549 L 182.862 191.351 182.774 185.616 C 182.673 178.992,182.390 177.908,180.565 177.145 C 178.890 176.446,176.693 176.523,175.372 177.328 M189.975 177.145 C 189.863 177.436,189.956 177.895,190.180 178.165 C 190.477 178.523,190.556 180.418,190.472 185.099 L 190.355 191.540 192.640 191.540 C 194.956 191.540,195.618 191.015,194.593 189.991 C 194.408 189.806,194.222 186.834,194.170 183.240 L 194.078 176.819 192.128 176.717 C 190.607 176.638,190.133 176.732,189.975 177.145 M198.450 177.268 C 195.135 179.353,195.067 188.500,198.349 190.946 C 202.269 193.867,206.462 187.896,205.100 181.334 C 204.307 177.515,201.138 175.578,198.450 177.268 M206.621 177.580 C 206.988 178.848,207.008 188.695,206.646 190.271 L 206.354 191.540 208.761 191.540 C 211.216 191.540,211.880 191.034,210.820 189.974 C 210.081 189.235,210.562 179.188,211.337 179.188 C 211.983 179.188,212.018 179.444,212.107 184.916 C 212.212 191.391,212.266 191.540,214.509 191.540 L 216.075 191.540 215.968 185.025 C 215.833 176.769,215.019 175.309,211.659 177.291 C 210.506 177.972,210.491 177.972,210.491 177.315 C 210.491 176.726,210.253 176.650,208.421 176.650 L 206.351 176.650 206.621 177.580 M228.904 177.112 C 228.799 177.387,228.877 177.919,229.077 178.293 C 229.548 179.173,229.572 189.727,229.103 190.017 C 227.835 190.801,228.810 191.540,231.114 191.540 C 233.691 191.540,234.149 191.248,233.353 190.111 C 232.302 188.611,232.752 178.891,233.814 180.170 C 234.924 181.508,236.228 179.919,235.656 177.926 C 235.199 176.332,233.891 176.372,233.114 178.003 L 232.550 179.188 232.434 178.003 C 232.304 176.671,229.359 175.928,228.904 177.112 M238.583 177.392 C 236.460 178.835,236.296 181.053,238.314 181.044 C 239.769 181.037,240.138 180.761,240.418 179.470 C 240.853 177.466,241.963 177.682,241.963 179.770 C 241.963 181.029,241.885 181.122,240.186 181.902 C 237.114 183.313,236.548 184.090,236.548 186.898 C 236.548 191.015,238.613 192.766,241.252 190.887 C 242.157 190.243,242.174 190.243,242.576 190.887 C 242.878 191.370,243.369 191.540,244.468 191.540 C 246.011 191.540,246.560 191.043,245.998 190.155 C 245.832 189.893,245.693 187.282,245.690 184.354 L 245.685 179.029 244.720 177.949 C 243.374 176.443,240.380 176.171,238.583 177.392 M247.212 176.981 C 247.100 177.163,247.174 177.623,247.377 178.003 C 247.800 178.794,247.681 189.543,247.235 190.778 C 246.967 191.521,247.018 191.540,249.290 191.540 L 251.620 191.540 251.490 185.577 C 251.360 179.624,251.452 179.046,252.538 179.024 C 252.678 179.021,252.792 181.445,252.792 184.411 C 252.792 191.302,252.898 191.608,255.244 191.473 C 256.821 191.382,257.006 191.294,256.876 190.694 C 256.328 188.148,256.705 179.188,257.360 179.188 C 258.005 179.188,258.046 179.476,258.226 185.279 C 258.448 192.428,258.151 191.540,260.321 191.540 L 262.098 191.540 262.007 186.041 C 261.855 176.827,260.903 174.866,257.776 177.327 C 257.302 177.699,256.773 178.003,256.598 178.003 C 256.424 178.003,256.005 177.699,255.668 177.327 C 254.889 176.465,253.665 176.464,252.459 177.322 C 251.517 177.993,251.515 177.993,251.339 177.322 C 251.146 176.585,247.637 176.295,247.212 176.981 M266.338 177.083 C 263.940 178.296,262.729 182.834,263.653 187.143 C 264.536 191.261,268.450 192.973,270.941 190.331 C 272.422 188.761,272.585 186.802,271.235 186.802 C 270.536 186.802,270.389 186.965,270.389 187.742 C 270.389 188.910,269.531 190.186,268.746 190.186 C 267.644 190.186,267.343 189.447,267.343 186.734 L 267.343 184.095 269.712 184.095 L 272.081 184.095 272.074 182.318 C 272.056 178.084,269.311 175.579,266.338 177.083 M273.196 177.563 C 273.296 178.084,273.964 181.404,274.682 184.941 L 275.987 191.371 277.221 191.474 L 278.455 191.577 278.806 189.782 C 279.000 188.794,279.291 187.301,279.453 186.464 L 279.749 184.941 280.159 186.971 C 281.118 191.716,280.948 191.360,282.318 191.475 C 283.772 191.597,283.489 192.369,284.959 184.271 C 285.533 181.110,286.161 178.333,286.356 178.099 C 286.984 177.342,286.394 176.650,285.121 176.650 C 283.868 176.650,283.612 177.116,284.226 178.279 C 284.415 178.638,284.312 179.982,283.948 181.895 L 283.368 184.941 282.926 182.910 C 282.482 180.876,282.358 178.763,282.608 177.496 C 282.728 176.884,282.535 176.809,280.576 176.717 C 277.856 176.589,277.732 176.731,278.527 179.075 C 279.103 180.773,278.918 185.291,278.298 184.671 C 278.010 184.383,277.154 178.974,277.236 177.955 L 277.327 176.819 275.171 176.717 L 273.015 176.615 273.196 177.563 M290.298 177.208 C 286.971 179.346,286.699 188.326,289.887 190.833 C 293.912 194.000,298.203 188.049,296.793 181.256 C 296.026 177.564,292.838 175.577,290.298 177.208 M298.259 177.162 C 298.151 177.443,298.239 177.886,298.455 178.146 C 298.827 178.594,298.823 188.922,298.450 190.694 C 298.320 191.315,298.511 191.379,300.761 191.470 C 303.168 191.568,304.218 190.846,302.876 190.017 C 302.439 189.746,302.419 180.034,302.857 180.034 C 303.032 180.034,303.269 180.186,303.384 180.372 C 303.711 180.900,304.812 180.770,305.040 180.175 C 306.139 177.311,303.774 175.329,302.548 178.088 L 301.909 179.526 301.885 178.088 L 301.861 176.650 300.159 176.650 C 298.951 176.650,298.399 176.799,298.259 177.162 M99.323 184.123 C 99.323 189.136,99.247 190.017,98.816 190.017 C 98.285 190.017,97.859 180.559,98.308 178.741 C 98.911 176.299,99.323 178.484,99.323 184.123 M201.148 178.539 C 201.843 180.350,201.305 190.186,200.511 190.186 C 199.832 190.186,199.671 189.006,199.666 183.988 C 199.661 178.920,200.339 176.429,201.148 178.539 M268.628 180.484 C 268.720 182.565,268.674 182.741,268.036 182.741 C 267.334 182.741,266.939 178.859,267.576 178.222 C 268.171 177.628,268.536 178.414,268.628 180.484 M292.893 184.118 C 292.893 189.279,292.826 190.021,292.345 190.113 C 291.373 190.300,290.855 181.095,291.711 178.844 C 292.552 176.632,292.893 178.155,292.893 184.118 M62.739 179.215 C 63.347 180.802,62.951 189.171,62.267 189.171 C 61.583 189.171,61.161 179.561,61.816 178.906 C 62.187 178.535,62.521 178.647,62.739 179.215 M137.319 183.903 C 137.415 189.079,137.229 189.973,136.256 188.999 C 135.141 187.884,135.524 178.531,136.675 178.752 C 137.148 178.843,137.238 179.563,137.319 183.903 M148.148 183.903 C 148.245 189.079,148.058 189.973,147.085 188.999 C 145.970 187.884,146.353 178.531,147.505 178.752 C 147.977 178.843,148.067 179.563,148.148 183.903 M126.565 185.421 C 126.565 188.371,126.381 189.171,125.704 189.171 C 124.746 189.171,124.642 184.343,125.575 183.219 C 126.347 182.288,126.565 182.773,126.565 185.421 M179.013 185.533 C 179.008 188.528,178.728 189.391,177.868 189.062 C 177.113 188.772,177.102 184.566,177.853 183.493 C 178.761 182.198,179.019 182.651,179.013 185.533 M241.963 185.956 C 241.963 188.870,241.904 189.171,241.331 189.171 C 240.295 189.171,240.060 184.398,241.035 183.164 C 241.757 182.250,241.963 182.868,241.963 185.956 " stroke="none" fill="#060404" fill-rule="evenodd"></path></g></svg>